<?xml version="1.0" encoding="UTF-8" standalone="no"?>
<!DOCTYPE svg PUBLIC "-//W3C//DTD SVG 1.1//EN"
 "http://www.w3.org/Graphics/SVG/1.1/DTD/svg11.dtd">
<!-- Generated by graphviz version 2.26.3 (20100126.1600)
 -->
<!-- Title: controllers_diagram Pages: 1 -->
<svg width="1059pt" height="979pt"
 viewBox="0.00 0.00 1059.00 979.29" xmlns="http://www.w3.org/2000/svg" xmlns:xlink="http://www.w3.org/1999/xlink">
<g id="graph1" class="graph" transform="scale(1 1) rotate(0) translate(4 975.286)">
<title>controllers_diagram</title>
<polygon fill="white" stroke="white" points="-4,5 -4,-975.286 1056,-975.286 1056,5 -4,5"/>
<!-- _diagram_info -->
<g id="node1" class="node"><title>_diagram_info</title>
<text text-anchor="start" x="837" y="-121.4" font-family="Times,serif" font-size="14.00">Controllers diagram</text>
<text text-anchor="start" x="837" y="-106.4" font-family="Times,serif" font-size="14.00">Date: Mar 25 2010 &#45; 12:50</text>
<text text-anchor="start" x="837" y="-91.4" font-family="Times,serif" font-size="14.00">Migration version: 20100319021418</text>
<text text-anchor="start" x="837" y="-76.4" font-family="Times,serif" font-size="14.00">Generated by RailRoad 0.5.0</text>
</g>
<!-- ApplicationController -->
<g id="node2" class="node"><title>ApplicationController</title>
<polyline fill="none" stroke="black" points="344.529,-420.947 465.529,-420.947 "/>
<path fill="none" stroke="black" d="M465.529,-420.947C471.529,-420.947 477.529,-426.947 477.529,-432.947"/>
<polyline fill="none" stroke="black" points="477.529,-432.947 477.529,-532.947 "/>
<path fill="none" stroke="black" d="M477.529,-532.947C477.529,-538.947 471.529,-544.947 465.529,-544.947"/>
<polyline fill="none" stroke="black" points="465.529,-544.947 344.529,-544.947 "/>
<path fill="none" stroke="black" d="M344.529,-544.947C338.529,-544.947 332.529,-538.947 332.529,-532.947"/>
<polyline fill="none" stroke="black" points="332.529,-532.947 332.529,-432.947 "/>
<path fill="none" stroke="black" d="M332.529,-432.947C332.529,-426.947 338.529,-420.947 344.529,-420.947"/>
<text text-anchor="middle" x="405.029" y="-528.347" font-family="Times,serif" font-size="14.00">ApplicationController</text>
<polyline fill="none" stroke="black" points="332.529,-521.947 477.529,-521.947 "/>
<text text-anchor="start" x="340.529" y="-505.347" font-family="Times,serif" font-size="14.00">role_requirements</text>
<text text-anchor="start" x="340.529" y="-490.347" font-family="Times,serif" font-size="14.00">role_requirements=</text>
<text text-anchor="start" x="340.529" y="-475.347" font-family="Times,serif" font-size="14.00">set_defaults</text>
<polyline fill="none" stroke="black" points="332.529,-468.947 477.529,-468.947 "/>
<polyline fill="none" stroke="black" points="332.529,-444.947 477.529,-444.947 "/>
</g>
<!-- AnalysesController -->
<g id="node3" class="node"><title>AnalysesController</title>
<polyline fill="none" stroke="black" points="523.34,-396.972 628.34,-396.972 "/>
<path fill="none" stroke="black" d="M628.34,-396.972C634.34,-396.972 640.34,-402.972 640.34,-408.972"/>
<polyline fill="none" stroke="black" points="640.34,-408.972 640.34,-568.972 "/>
<path fill="none" stroke="black" d="M640.34,-568.972C640.34,-574.972 634.34,-580.972 628.34,-580.972"/>
<polyline fill="none" stroke="black" points="628.34,-580.972 523.34,-580.972 "/>
<path fill="none" stroke="black" d="M523.34,-580.972C517.34,-580.972 511.34,-574.972 511.34,-568.972"/>
<polyline fill="none" stroke="black" points="511.34,-568.972 511.34,-408.972 "/>
<path fill="none" stroke="black" d="M511.34,-408.972C511.34,-402.972 517.34,-396.972 523.34,-396.972"/>
<text text-anchor="middle" x="575.84" y="-564.372" font-family="Times,serif" font-size="14.00">AnalysesController</text>
<polyline fill="none" stroke="black" points="511.34,-557.972 640.34,-557.972 "/>
<text text-anchor="start" x="519.34" y="-541.372" font-family="Times,serif" font-size="14.00">create</text>
<text text-anchor="start" x="519.34" y="-526.372" font-family="Times,serif" font-size="14.00">destroy</text>
<text text-anchor="start" x="519.34" y="-511.372" font-family="Times,serif" font-size="14.00">edit</text>
<text text-anchor="start" x="519.34" y="-496.372" font-family="Times,serif" font-size="14.00">index</text>
<text text-anchor="start" x="519.34" y="-481.372" font-family="Times,serif" font-size="14.00">new</text>
<text text-anchor="start" x="519.34" y="-466.372" font-family="Times,serif" font-size="14.00">show</text>
<text text-anchor="start" x="519.34" y="-451.372" font-family="Times,serif" font-size="14.00">update</text>
<polyline fill="none" stroke="black" points="511.34,-444.972 640.34,-444.972 "/>
<polyline fill="none" stroke="black" points="511.34,-420.972 640.34,-420.972 "/>
</g>
<!-- ApplicationController&#45;&gt;AnalysesController -->
<g id="edge2" class="edge"><title>ApplicationController&#45;&gt;AnalysesController</title>
<path fill="none" stroke="black" d="M477.964,-485.52C489.026,-485.91 500.374,-486.31 511.243,-486.693"/>
</g>
<!-- ConceptsController -->
<g id="node4" class="node"><title>ConceptsController</title>
<polyline fill="none" stroke="black" points="65.6788,-1.5 171.679,-1.5 "/>
<path fill="none" stroke="black" d="M171.679,-1.5C177.679,-1.5 183.679,-7.5 183.679,-13.5"/>
<polyline fill="none" stroke="black" points="183.679,-13.5 183.679,-173.5 "/>
<path fill="none" stroke="black" d="M183.679,-173.5C183.679,-179.5 177.679,-185.5 171.679,-185.5"/>
<polyline fill="none" stroke="black" points="171.679,-185.5 65.6788,-185.5 "/>
<path fill="none" stroke="black" d="M65.6788,-185.5C59.6788,-185.5 53.6788,-179.5 53.6788,-173.5"/>
<polyline fill="none" stroke="black" points="53.6788,-173.5 53.6788,-13.5 "/>
<path fill="none" stroke="black" d="M53.6788,-13.5C53.6788,-7.5 59.6788,-1.5 65.6788,-1.5"/>
<text text-anchor="middle" x="118.679" y="-168.9" font-family="Times,serif" font-size="14.00">ConceptsController</text>
<polyline fill="none" stroke="black" points="53.6788,-162.5 183.679,-162.5 "/>
<text text-anchor="start" x="61.6788" y="-145.9" font-family="Times,serif" font-size="14.00">create</text>
<text text-anchor="start" x="61.6788" y="-130.9" font-family="Times,serif" font-size="14.00">destroy</text>
<text text-anchor="start" x="61.6788" y="-115.9" font-family="Times,serif" font-size="14.00">edit</text>
<text text-anchor="start" x="61.6788" y="-100.9" font-family="Times,serif" font-size="14.00">index</text>
<text text-anchor="start" x="61.6788" y="-85.9" font-family="Times,serif" font-size="14.00">new</text>
<text text-anchor="start" x="61.6788" y="-70.9" font-family="Times,serif" font-size="14.00">show</text>
<text text-anchor="start" x="61.6788" y="-55.9" font-family="Times,serif" font-size="14.00">update</text>
<polyline fill="none" stroke="black" points="53.6788,-49.5 183.679,-49.5 "/>
<polyline fill="none" stroke="black" points="53.6788,-25.5 183.679,-25.5 "/>
</g>
<!-- ApplicationController&#45;&gt;ConceptsController -->
<g id="edge4" class="edge"><title>ApplicationController&#45;&gt;ConceptsController</title>
<path fill="none" stroke="black" d="M348.039,-420.693C332.614,-405.455 315.406,-389.802 298.205,-376.784 271.802,-356.801 255.786,-364.504 233.307,-340.189 192.834,-296.409 164.402,-235.813 145.978,-185.635"/>
</g>
<!-- DrugsController -->
<g id="node5" class="node"><title>DrugsController</title>
<polyline fill="none" stroke="black" points="75.8724,-784.666 161.872,-784.666 "/>
<path fill="none" stroke="black" d="M161.872,-784.666C167.872,-784.666 173.872,-790.666 173.872,-796.666"/>
<polyline fill="none" stroke="black" points="173.872,-796.666 173.872,-956.666 "/>
<path fill="none" stroke="black" d="M173.872,-956.666C173.872,-962.666 167.872,-968.666 161.872,-968.666"/>
<polyline fill="none" stroke="black" points="161.872,-968.666 75.8724,-968.666 "/>
<path fill="none" stroke="black" d="M75.8724,-968.666C69.8724,-968.666 63.8724,-962.666 63.8724,-956.666"/>
<polyline fill="none" stroke="black" points="63.8724,-956.666 63.8724,-796.666 "/>
<path fill="none" stroke="black" d="M63.8724,-796.666C63.8724,-790.666 69.8724,-784.666 75.8724,-784.666"/>
<text text-anchor="middle" x="118.872" y="-952.066" font-family="Times,serif" font-size="14.00">DrugsController</text>
<polyline fill="none" stroke="black" points="63.8724,-945.666 173.872,-945.666 "/>
<text text-anchor="start" x="71.8724" y="-929.066" font-family="Times,serif" font-size="14.00">create</text>
<text text-anchor="start" x="71.8724" y="-914.066" font-family="Times,serif" font-size="14.00">destroy</text>
<text text-anchor="start" x="71.8724" y="-899.066" font-family="Times,serif" font-size="14.00">edit</text>
<text text-anchor="start" x="71.8724" y="-884.066" font-family="Times,serif" font-size="14.00">index</text>
<text text-anchor="start" x="71.8724" y="-869.066" font-family="Times,serif" font-size="14.00">new</text>
<text text-anchor="start" x="71.8724" y="-854.066" font-family="Times,serif" font-size="14.00">show</text>
<text text-anchor="start" x="71.8724" y="-839.066" font-family="Times,serif" font-size="14.00">update</text>
<polyline fill="none" stroke="black" points="63.8724,-832.666 173.872,-832.666 "/>
<polyline fill="none" stroke="black" points="63.8724,-808.666 173.872,-808.666 "/>
</g>
<!-- ApplicationController&#45;&gt;DrugsController -->
<g id="edge6" class="edge"><title>ApplicationController&#45;&gt;DrugsController</title>
<path fill="none" stroke="black" d="M334.549,-545.152C322.932,-553.413 310.615,-561.11 298.205,-567.184 272.139,-579.944 256.661,-563.766 234.819,-582.876 203.404,-610.362 168.345,-709.068 145.089,-784.56"/>
</g>
<!-- FormatsController -->
<g id="node6" class="node"><title>FormatsController</title>
<polyline fill="none" stroke="black" points="455.885,-593.579 554.885,-593.579 "/>
<path fill="none" stroke="black" d="M554.885,-593.579C560.885,-593.579 566.885,-599.579 566.885,-605.579"/>
<polyline fill="none" stroke="black" points="566.885,-605.579 566.885,-765.579 "/>
<path fill="none" stroke="black" d="M566.885,-765.579C566.885,-771.579 560.885,-777.579 554.885,-777.579"/>
<polyline fill="none" stroke="black" points="554.885,-777.579 455.885,-777.579 "/>
<path fill="none" stroke="black" d="M455.885,-777.579C449.885,-777.579 443.885,-771.579 443.885,-765.579"/>
<polyline fill="none" stroke="black" points="443.885,-765.579 443.885,-605.579 "/>
<path fill="none" stroke="black" d="M443.885,-605.579C443.885,-599.579 449.885,-593.579 455.885,-593.579"/>
<text text-anchor="middle" x="505.385" y="-760.979" font-family="Times,serif" font-size="14.00">FormatsController</text>
<polyline fill="none" stroke="black" points="443.885,-754.579 566.885,-754.579 "/>
<text text-anchor="start" x="451.885" y="-737.979" font-family="Times,serif" font-size="14.00">create</text>
<text text-anchor="start" x="451.885" y="-722.979" font-family="Times,serif" font-size="14.00">destroy</text>
<text text-anchor="start" x="451.885" y="-707.979" font-family="Times,serif" font-size="14.00">edit</text>
<text text-anchor="start" x="451.885" y="-692.979" font-family="Times,serif" font-size="14.00">index</text>
<text text-anchor="start" x="451.885" y="-677.979" font-family="Times,serif" font-size="14.00">new</text>
<text text-anchor="start" x="451.885" y="-662.979" font-family="Times,serif" font-size="14.00">show</text>
<text text-anchor="start" x="451.885" y="-647.979" font-family="Times,serif" font-size="14.00">update</text>
<polyline fill="none" stroke="black" points="443.885,-641.579 566.885,-641.579 "/>
<polyline fill="none" stroke="black" points="443.885,-617.579 566.885,-617.579 "/>
</g>
<!-- ApplicationController&#45;&gt;FormatsController -->
<g id="edge8" class="edge"><title>ApplicationController&#45;&gt;FormatsController</title>
<path fill="none" stroke="black" d="M435.821,-545.12C443.369,-560.361 451.609,-576.997 459.692,-593.318"/>
</g>
<!-- GenesController -->
<g id="node7" class="node"><title>GenesController</title>
<polyline fill="none" stroke="black" points="250.019,-586.076 339.019,-586.076 "/>
<path fill="none" stroke="black" d="M339.019,-586.076C345.019,-586.076 351.019,-592.076 351.019,-598.076"/>
<polyline fill="none" stroke="black" points="351.019,-598.076 351.019,-758.076 "/>
<path fill="none" stroke="black" d="M351.019,-758.076C351.019,-764.076 345.019,-770.076 339.019,-770.076"/>
<polyline fill="none" stroke="black" points="339.019,-770.076 250.019,-770.076 "/>
<path fill="none" stroke="black" d="M250.019,-770.076C244.019,-770.076 238.019,-764.076 238.019,-758.076"/>
<polyline fill="none" stroke="black" points="238.019,-758.076 238.019,-598.076 "/>
<path fill="none" stroke="black" d="M238.019,-598.076C238.019,-592.076 244.019,-586.076 250.019,-586.076"/>
<text text-anchor="middle" x="294.519" y="-753.476" font-family="Times,serif" font-size="14.00">GenesController</text>
<polyline fill="none" stroke="black" points="238.019,-747.076 351.019,-747.076 "/>
<text text-anchor="start" x="246.019" y="-730.476" font-family="Times,serif" font-size="14.00">create</text>
<text text-anchor="start" x="246.019" y="-715.476" font-family="Times,serif" font-size="14.00">destroy</text>
<text text-anchor="start" x="246.019" y="-700.476" font-family="Times,serif" font-size="14.00">edit</text>
<text text-anchor="start" x="246.019" y="-685.476" font-family="Times,serif" font-size="14.00">index</text>
<text text-anchor="start" x="246.019" y="-670.476" font-family="Times,serif" font-size="14.00">new</text>
<text text-anchor="start" x="246.019" y="-655.476" font-family="Times,serif" font-size="14.00">show</text>
<text text-anchor="start" x="246.019" y="-640.476" font-family="Times,serif" font-size="14.00">update</text>
<polyline fill="none" stroke="black" points="238.019,-634.076 351.019,-634.076 "/>
<polyline fill="none" stroke="black" points="238.019,-610.076 351.019,-610.076 "/>
</g>
<!-- ApplicationController&#45;&gt;GenesController -->
<g id="edge10" class="edge"><title>ApplicationController&#45;&gt;GenesController</title>
<path fill="none" stroke="black" d="M369.911,-544.955C362.517,-558.012 354.565,-572.053 346.696,-585.946"/>
</g>
<!-- ImportsController -->
<g id="node8" class="node"><title>ImportsController</title>
<polyline fill="none" stroke="black" points="28.9961,-204.73 124.996,-204.73 "/>
<path fill="none" stroke="black" d="M124.996,-204.73C130.996,-204.73 136.996,-210.73 136.996,-216.73"/>
<polyline fill="none" stroke="black" points="136.996,-216.73 136.996,-376.73 "/>
<path fill="none" stroke="black" d="M136.996,-376.73C136.996,-382.73 130.996,-388.73 124.996,-388.73"/>
<polyline fill="none" stroke="black" points="124.996,-388.73 28.9961,-388.73 "/>
<path fill="none" stroke="black" d="M28.9961,-388.73C22.9961,-388.73 16.9961,-382.73 16.9961,-376.73"/>
<polyline fill="none" stroke="black" points="16.9961,-376.73 16.9961,-216.73 "/>
<path fill="none" stroke="black" d="M16.9961,-216.73C16.9961,-210.73 22.9961,-204.73 28.9961,-204.73"/>
<text text-anchor="middle" x="76.9961" y="-372.13" font-family="Times,serif" font-size="14.00">ImportsController</text>
<polyline fill="none" stroke="black" points="16.9961,-365.73 136.996,-365.73 "/>
<text text-anchor="start" x="24.9961" y="-349.13" font-family="Times,serif" font-size="14.00">create</text>
<text text-anchor="start" x="24.9961" y="-334.13" font-family="Times,serif" font-size="14.00">destroy</text>
<text text-anchor="start" x="24.9961" y="-319.13" font-family="Times,serif" font-size="14.00">edit</text>
<text text-anchor="start" x="24.9961" y="-304.13" font-family="Times,serif" font-size="14.00">index</text>
<text text-anchor="start" x="24.9961" y="-289.13" font-family="Times,serif" font-size="14.00">new</text>
<text text-anchor="start" x="24.9961" y="-274.13" font-family="Times,serif" font-size="14.00">show</text>
<text text-anchor="start" x="24.9961" y="-259.13" font-family="Times,serif" font-size="14.00">update</text>
<polyline fill="none" stroke="black" points="16.9961,-252.73 136.996,-252.73 "/>
<polyline fill="none" stroke="black" points="16.9961,-228.73 136.996,-228.73 "/>
</g>
<!-- ApplicationController&#45;&gt;ImportsController -->
<g id="edge12" class="edge"><title>ApplicationController&#45;&gt;ImportsController</title>
<path fill="none" stroke="black" d="M351.678,-420.875C335.7,-404.934 317.31,-388.889 298.205,-376.784 248.008,-344.979 183.413,-323.467 137.002,-310.822"/>
</g>
<!-- MembersController -->
<g id="node9" class="node"><title>MembersController</title>
<polyline fill="none" stroke="black" points="670.6,-265.551 777.6,-265.551 "/>
<path fill="none" stroke="black" d="M777.6,-265.551C783.6,-265.551 789.6,-271.551 789.6,-277.551"/>
<polyline fill="none" stroke="black" points="789.6,-277.551 789.6,-437.551 "/>
<path fill="none" stroke="black" d="M789.6,-437.551C789.6,-443.551 783.6,-449.551 777.6,-449.551"/>
<polyline fill="none" stroke="black" points="777.6,-449.551 670.6,-449.551 "/>
<path fill="none" stroke="black" d="M670.6,-449.551C664.6,-449.551 658.6,-443.551 658.6,-437.551"/>
<polyline fill="none" stroke="black" points="658.6,-437.551 658.6,-277.551 "/>
<path fill="none" stroke="black" d="M658.6,-277.551C658.6,-271.551 664.6,-265.551 670.6,-265.551"/>
<text text-anchor="middle" x="724.1" y="-432.951" font-family="Times,serif" font-size="14.00">MembersController</text>
<polyline fill="none" stroke="black" points="658.6,-426.551 789.6,-426.551 "/>
<text text-anchor="start" x="666.6" y="-409.951" font-family="Times,serif" font-size="14.00">create</text>
<text text-anchor="start" x="666.6" y="-394.951" font-family="Times,serif" font-size="14.00">destroy</text>
<text text-anchor="start" x="666.6" y="-379.951" font-family="Times,serif" font-size="14.00">edit</text>
<text text-anchor="start" x="666.6" y="-364.951" font-family="Times,serif" font-size="14.00">index</text>
<text text-anchor="start" x="666.6" y="-349.951" font-family="Times,serif" font-size="14.00">new</text>
<text text-anchor="start" x="666.6" y="-334.951" font-family="Times,serif" font-size="14.00">show</text>
<text text-anchor="start" x="666.6" y="-319.951" font-family="Times,serif" font-size="14.00">update</text>
<polyline fill="none" stroke="black" points="658.6,-313.551 789.6,-313.551 "/>
<polyline fill="none" stroke="black" points="658.6,-289.551 789.6,-289.551 "/>
</g>
<!-- ApplicationController&#45;&gt;MembersController -->
<g id="edge14" class="edge"><title>ApplicationController&#45;&gt;MembersController</title>
<path fill="none" stroke="black" d="M465.711,-420.944C478.801,-410.432 493.22,-400.695 508.14,-393.772 535.53,-381.063 545.462,-388.137 575.254,-383.227 602.551,-378.728 632.629,-373.577 658.559,-369.075"/>
</g>
<!-- RolesController -->
<g id="node10" class="node"><title>RolesController</title>
<polyline fill="none" stroke="black" points="197.005,-379.984 283.005,-379.984 "/>
<path fill="none" stroke="black" d="M283.005,-379.984C289.005,-379.984 295.005,-385.984 295.005,-391.984"/>
<polyline fill="none" stroke="black" points="295.005,-391.984 295.005,-551.984 "/>
<path fill="none" stroke="black" d="M295.005,-551.984C295.005,-557.984 289.005,-563.984 283.005,-563.984"/>
<polyline fill="none" stroke="black" points="283.005,-563.984 197.005,-563.984 "/>
<path fill="none" stroke="black" d="M197.005,-563.984C191.005,-563.984 185.005,-557.984 185.005,-551.984"/>
<polyline fill="none" stroke="black" points="185.005,-551.984 185.005,-391.984 "/>
<path fill="none" stroke="black" d="M185.005,-391.984C185.005,-385.984 191.005,-379.984 197.005,-379.984"/>
<text text-anchor="middle" x="240.005" y="-547.384" font-family="Times,serif" font-size="14.00">RolesController</text>
<polyline fill="none" stroke="black" points="185.005,-540.984 295.005,-540.984 "/>
<text text-anchor="start" x="193.005" y="-524.384" font-family="Times,serif" font-size="14.00">create</text>
<text text-anchor="start" x="193.005" y="-509.384" font-family="Times,serif" font-size="14.00">destroy</text>
<text text-anchor="start" x="193.005" y="-494.384" font-family="Times,serif" font-size="14.00">edit</text>
<text text-anchor="start" x="193.005" y="-479.384" font-family="Times,serif" font-size="14.00">index</text>
<text text-anchor="start" x="193.005" y="-464.384" font-family="Times,serif" font-size="14.00">new</text>
<text text-anchor="start" x="193.005" y="-449.384" font-family="Times,serif" font-size="14.00">show</text>
<text text-anchor="start" x="193.005" y="-434.384" font-family="Times,serif" font-size="14.00">update</text>
<polyline fill="none" stroke="black" points="185.005,-427.984 295.005,-427.984 "/>
<polyline fill="none" stroke="black" points="185.005,-403.984 295.005,-403.984 "/>
</g>
<!-- ApplicationController&#45;&gt;RolesController -->
<g id="edge16" class="edge"><title>ApplicationController&#45;&gt;RolesController</title>
<path fill="none" stroke="black" d="M332.167,-478.107C319.734,-477.281 307.004,-476.435 295.128,-475.646"/>
</g>
<!-- SearchController -->
<g id="node11" class="node"><title>SearchController</title>
<polyline fill="none" stroke="black" points="362.056,-42.6674 453.056,-42.6674 "/>
<path fill="none" stroke="black" d="M453.056,-42.6674C459.056,-42.6674 465.056,-48.6674 465.056,-54.6674"/>
<polyline fill="none" stroke="black" points="465.056,-54.6674 465.056,-124.667 "/>
<path fill="none" stroke="black" d="M465.056,-124.667C465.056,-130.667 459.056,-136.667 453.056,-136.667"/>
<polyline fill="none" stroke="black" points="453.056,-136.667 362.056,-136.667 "/>
<path fill="none" stroke="black" d="M362.056,-136.667C356.056,-136.667 350.056,-130.667 350.056,-124.667"/>
<polyline fill="none" stroke="black" points="350.056,-124.667 350.056,-54.6674 "/>
<path fill="none" stroke="black" d="M350.056,-54.6674C350.056,-48.6674 356.056,-42.6674 362.056,-42.6674"/>
<text text-anchor="middle" x="407.556" y="-120.067" font-family="Times,serif" font-size="14.00">SearchController</text>
<polyline fill="none" stroke="black" points="350.056,-113.667 465.056,-113.667 "/>
<text text-anchor="start" x="358.056" y="-97.0674" font-family="Times,serif" font-size="14.00">live</text>
<polyline fill="none" stroke="black" points="350.056,-90.6674 465.056,-90.6674 "/>
<polyline fill="none" stroke="black" points="350.056,-66.6674 465.056,-66.6674 "/>
</g>
<!-- ApplicationController&#45;&gt;SearchController -->
<g id="edge18" class="edge"><title>ApplicationController&#45;&gt;SearchController</title>
<path fill="none" stroke="black" d="M405.43,-420.631C405.936,-341.792 406.797,-207.772 407.253,-136.88"/>
</g>
<!-- SessionsController -->
<g id="node12" class="node"><title>SessionsController</title>
<polyline fill="none" stroke="black" points="248.507,-213.989 349.507,-213.989 "/>
<path fill="none" stroke="black" d="M349.507,-213.989C355.507,-213.989 361.507,-219.989 361.507,-225.989"/>
<polyline fill="none" stroke="black" points="361.507,-225.989 361.507,-324.989 "/>
<path fill="none" stroke="black" d="M361.507,-324.989C361.507,-330.989 355.507,-336.989 349.507,-336.989"/>
<polyline fill="none" stroke="black" points="349.507,-336.989 248.507,-336.989 "/>
<path fill="none" stroke="black" d="M248.507,-336.989C242.507,-336.989 236.507,-330.989 236.507,-324.989"/>
<polyline fill="none" stroke="black" points="236.507,-324.989 236.507,-225.989 "/>
<path fill="none" stroke="black" d="M236.507,-225.989C236.507,-219.989 242.507,-213.989 248.507,-213.989"/>
<text text-anchor="middle" x="299.007" y="-320.389" font-family="Times,serif" font-size="14.00">SessionsController</text>
<polyline fill="none" stroke="black" points="236.507,-313.989 361.507,-313.989 "/>
<text text-anchor="start" x="244.507" y="-297.389" font-family="Times,serif" font-size="14.00">create</text>
<text text-anchor="start" x="244.507" y="-282.389" font-family="Times,serif" font-size="14.00">destroy</text>
<text text-anchor="start" x="244.507" y="-267.389" font-family="Times,serif" font-size="14.00">new</text>
<polyline fill="none" stroke="black" points="236.507,-260.989 361.507,-260.989 "/>
<text text-anchor="start" x="244.507" y="-244.389" font-family="Times,serif" font-size="14.00">note_failed_signin</text>
<polyline fill="none" stroke="black" points="236.507,-237.989 361.507,-237.989 "/>
</g>
<!-- ApplicationController&#45;&gt;SessionsController -->
<g id="edge20" class="edge"><title>ApplicationController&#45;&gt;SessionsController</title>
<path fill="none" stroke="black" d="M373.219,-420.703C359.739,-394.326 344.07,-363.665 330.612,-337.332"/>
</g>
<!-- SourcesController -->
<g id="node13" class="node"><title>SourcesController</title>
<polyline fill="none" stroke="black" points="13,-399.233 111,-399.233 "/>
<path fill="none" stroke="black" d="M111,-399.233C117,-399.233 123,-405.233 123,-411.233"/>
<polyline fill="none" stroke="black" points="123,-411.233 123,-571.233 "/>
<path fill="none" stroke="black" d="M123,-571.233C123,-577.233 117,-583.233 111,-583.233"/>
<polyline fill="none" stroke="black" points="111,-583.233 13,-583.233 "/>
<path fill="none" stroke="black" d="M13,-583.233C7,-583.233 1,-577.233 1,-571.233"/>
<polyline fill="none" stroke="black" points="1,-571.233 1,-411.233 "/>
<path fill="none" stroke="black" d="M1,-411.233C1,-405.233 7,-399.233 13,-399.233"/>
<text text-anchor="middle" x="62" y="-566.633" font-family="Times,serif" font-size="14.00">SourcesController</text>
<polyline fill="none" stroke="black" points="1,-560.233 123,-560.233 "/>
<text text-anchor="start" x="9" y="-543.633" font-family="Times,serif" font-size="14.00">create</text>
<text text-anchor="start" x="9" y="-528.633" font-family="Times,serif" font-size="14.00">destroy</text>
<text text-anchor="start" x="9" y="-513.633" font-family="Times,serif" font-size="14.00">edit</text>
<text text-anchor="start" x="9" y="-498.633" font-family="Times,serif" font-size="14.00">index</text>
<text text-anchor="start" x="9" y="-483.633" font-family="Times,serif" font-size="14.00">new</text>
<text text-anchor="start" x="9" y="-468.633" font-family="Times,serif" font-size="14.00">show</text>
<text text-anchor="start" x="9" y="-453.633" font-family="Times,serif" font-size="14.00">update</text>
<polyline fill="none" stroke="black" points="1,-447.233 123,-447.233 "/>
<polyline fill="none" stroke="black" points="1,-423.233 123,-423.233 "/>
</g>
<!-- ApplicationController&#45;&gt;SourcesController -->
<g id="edge22" class="edge"><title>ApplicationController&#45;&gt;SourcesController</title>
<path fill="none" stroke="black" d="M339.886,-545.041C326.951,-554.125 312.821,-562.115 298.205,-567.184 249.329,-584.137 231.488,-581.606 181.805,-567.184 161.347,-561.246 141.036,-550.649 123.109,-539.22"/>
</g>
<!-- SubconceptsController -->
<g id="node14" class="node"><title>SubconceptsController</title>
<polyline fill="none" stroke="black" points="661.745,-527.739 785.745,-527.739 "/>
<path fill="none" stroke="black" d="M785.745,-527.739C791.745,-527.739 797.745,-533.739 797.745,-539.739"/>
<polyline fill="none" stroke="black" points="797.745,-539.739 797.745,-699.739 "/>
<path fill="none" stroke="black" d="M797.745,-699.739C797.745,-705.739 791.745,-711.739 785.745,-711.739"/>
<polyline fill="none" stroke="black" points="785.745,-711.739 661.745,-711.739 "/>
<path fill="none" stroke="black" d="M661.745,-711.739C655.745,-711.739 649.745,-705.739 649.745,-699.739"/>
<polyline fill="none" stroke="black" points="649.745,-699.739 649.745,-539.739 "/>
<path fill="none" stroke="black" d="M649.745,-539.739C649.745,-533.739 655.745,-527.739 661.745,-527.739"/>
<text text-anchor="middle" x="723.745" y="-695.139" font-family="Times,serif" font-size="14.00">SubconceptsController</text>
<polyline fill="none" stroke="black" points="649.745,-688.739 797.745,-688.739 "/>
<text text-anchor="start" x="657.745" y="-672.139" font-family="Times,serif" font-size="14.00">create</text>
<text text-anchor="start" x="657.745" y="-657.139" font-family="Times,serif" font-size="14.00">destroy</text>
<text text-anchor="start" x="657.745" y="-642.139" font-family="Times,serif" font-size="14.00">edit</text>
<text text-anchor="start" x="657.745" y="-627.139" font-family="Times,serif" font-size="14.00">index</text>
<text text-anchor="start" x="657.745" y="-612.139" font-family="Times,serif" font-size="14.00">new</text>
<text text-anchor="start" x="657.745" y="-597.139" font-family="Times,serif" font-size="14.00">show</text>
<text text-anchor="start" x="657.745" y="-582.139" font-family="Times,serif" font-size="14.00">update</text>
<polyline fill="none" stroke="black" points="649.745,-575.739 797.745,-575.739 "/>
<polyline fill="none" stroke="black" points="649.745,-551.739 797.745,-551.739 "/>
</g>
<!-- ApplicationController&#45;&gt;SubconceptsController -->
<g id="edge24" class="edge"><title>ApplicationController&#45;&gt;SubconceptsController</title>
<path fill="none" stroke="black" d="M454.935,-545.207C470.346,-560.427 488.49,-574.968 508.14,-584.172 533.197,-595.908 542.704,-586.4 570.085,-590.379 596.156,-594.169 624.531,-599.302 649.721,-604.216"/>
</g>
<!-- SuggestionsController -->
<g id="node15" class="node"><title>SuggestionsController</title>
<polyline fill="none" stroke="black" points="619.561,-770.225 741.561,-770.225 "/>
<path fill="none" stroke="black" d="M741.561,-770.225C747.561,-770.225 753.561,-776.225 753.561,-782.225"/>
<polyline fill="none" stroke="black" points="753.561,-782.225 753.561,-942.225 "/>
<path fill="none" stroke="black" d="M753.561,-942.225C753.561,-948.225 747.561,-954.225 741.561,-954.225"/>
<polyline fill="none" stroke="black" points="741.561,-954.225 619.561,-954.225 "/>
<path fill="none" stroke="black" d="M619.561,-954.225C613.561,-954.225 607.561,-948.225 607.561,-942.225"/>
<polyline fill="none" stroke="black" points="607.561,-942.225 607.561,-782.225 "/>
<path fill="none" stroke="black" d="M607.561,-782.225C607.561,-776.225 613.561,-770.225 619.561,-770.225"/>
<text text-anchor="middle" x="680.561" y="-937.625" font-family="Times,serif" font-size="14.00">SuggestionsController</text>
<polyline fill="none" stroke="black" points="607.561,-931.225 753.561,-931.225 "/>
<text text-anchor="start" x="615.561" y="-914.625" font-family="Times,serif" font-size="14.00">create</text>
<text text-anchor="start" x="615.561" y="-899.625" font-family="Times,serif" font-size="14.00">destroy</text>
<text text-anchor="start" x="615.561" y="-884.625" font-family="Times,serif" font-size="14.00">edit</text>
<text text-anchor="start" x="615.561" y="-869.625" font-family="Times,serif" font-size="14.00">index</text>
<text text-anchor="start" x="615.561" y="-854.625" font-family="Times,serif" font-size="14.00">new</text>
<text text-anchor="start" x="615.561" y="-839.625" font-family="Times,serif" font-size="14.00">show</text>
<text text-anchor="start" x="615.561" y="-824.625" font-family="Times,serif" font-size="14.00">update</text>
<polyline fill="none" stroke="black" points="607.561,-818.225 753.561,-818.225 "/>
<polyline fill="none" stroke="black" points="607.561,-794.225 753.561,-794.225 "/>
</g>
<!-- ApplicationController&#45;&gt;SuggestionsController -->
<g id="edge26" class="edge"><title>ApplicationController&#45;&gt;SuggestionsController</title>
<path fill="none" stroke="black" d="M454.935,-545.207C470.346,-560.427 488.49,-574.968 508.14,-584.172 520.669,-590.04 559.008,-582.092 570.085,-590.379 600.27,-612.963 632.478,-700.293 654.281,-769.958"/>
</g>
<!-- TreatmentsController -->
<g id="node16" class="node"><title>TreatmentsController</title>
<polyline fill="none" stroke="black" points="341.218,-785.786 457.218,-785.786 "/>
<path fill="none" stroke="black" d="M457.218,-785.786C463.218,-785.786 469.218,-791.786 469.218,-797.786"/>
<polyline fill="none" stroke="black" points="469.218,-797.786 469.218,-957.786 "/>
<path fill="none" stroke="black" d="M469.218,-957.786C469.218,-963.786 463.218,-969.786 457.218,-969.786"/>
<polyline fill="none" stroke="black" points="457.218,-969.786 341.218,-969.786 "/>
<path fill="none" stroke="black" d="M341.218,-969.786C335.218,-969.786 329.218,-963.786 329.218,-957.786"/>
<polyline fill="none" stroke="black" points="329.218,-957.786 329.218,-797.786 "/>
<path fill="none" stroke="black" d="M329.218,-797.786C329.218,-791.786 335.218,-785.786 341.218,-785.786"/>
<text text-anchor="middle" x="399.218" y="-953.186" font-family="Times,serif" font-size="14.00">TreatmentsController</text>
<polyline fill="none" stroke="black" points="329.218,-946.786 469.218,-946.786 "/>
<text text-anchor="start" x="337.218" y="-930.186" font-family="Times,serif" font-size="14.00">create</text>
<text text-anchor="start" x="337.218" y="-915.186" font-family="Times,serif" font-size="14.00">destroy</text>
<text text-anchor="start" x="337.218" y="-900.186" font-family="Times,serif" font-size="14.00">edit</text>
<text text-anchor="start" x="337.218" y="-885.186" font-family="Times,serif" font-size="14.00">index</text>
<text text-anchor="start" x="337.218" y="-870.186" font-family="Times,serif" font-size="14.00">new</text>
<text text-anchor="start" x="337.218" y="-855.186" font-family="Times,serif" font-size="14.00">show</text>
<text text-anchor="start" x="337.218" y="-840.186" font-family="Times,serif" font-size="14.00">update</text>
<polyline fill="none" stroke="black" points="329.218,-833.786 469.218,-833.786 "/>
<polyline fill="none" stroke="black" points="329.218,-809.786 469.218,-809.786 "/>
</g>
<!-- ApplicationController&#45;&gt;TreatmentsController -->
<g id="edge28" class="edge"><title>ApplicationController&#45;&gt;TreatmentsController</title>
<path fill="none" stroke="black" d="M404.115,-545.075C403.164,-609.683 401.665,-711.541 400.576,-785.547"/>
</g>
<!-- UploadsController -->
<g id="node17" class="node"><title>UploadsController</title>
<polyline fill="none" stroke="black" points="459.054,-196.027 560.054,-196.027 "/>
<path fill="none" stroke="black" d="M560.054,-196.027C566.054,-196.027 572.054,-202.027 572.054,-208.027"/>
<polyline fill="none" stroke="black" points="572.054,-208.027 572.054,-368.027 "/>
<path fill="none" stroke="black" d="M572.054,-368.027C572.054,-374.027 566.054,-380.027 560.054,-380.027"/>
<polyline fill="none" stroke="black" points="560.054,-380.027 459.054,-380.027 "/>
<path fill="none" stroke="black" d="M459.054,-380.027C453.054,-380.027 447.054,-374.027 447.054,-368.027"/>
<polyline fill="none" stroke="black" points="447.054,-368.027 447.054,-208.027 "/>
<path fill="none" stroke="black" d="M447.054,-208.027C447.054,-202.027 453.054,-196.027 459.054,-196.027"/>
<text text-anchor="middle" x="509.554" y="-363.427" font-family="Times,serif" font-size="14.00">UploadsController</text>
<polyline fill="none" stroke="black" points="447.054,-357.027 572.054,-357.027 "/>
<text text-anchor="start" x="455.054" y="-340.427" font-family="Times,serif" font-size="14.00">create</text>
<text text-anchor="start" x="455.054" y="-325.427" font-family="Times,serif" font-size="14.00">destroy</text>
<text text-anchor="start" x="455.054" y="-310.427" font-family="Times,serif" font-size="14.00">edit</text>
<text text-anchor="start" x="455.054" y="-295.427" font-family="Times,serif" font-size="14.00">index</text>
<text text-anchor="start" x="455.054" y="-280.427" font-family="Times,serif" font-size="14.00">new</text>
<text text-anchor="start" x="455.054" y="-265.427" font-family="Times,serif" font-size="14.00">show</text>
<text text-anchor="start" x="455.054" y="-250.427" font-family="Times,serif" font-size="14.00">update</text>
<polyline fill="none" stroke="black" points="447.054,-244.027 572.054,-244.027 "/>
<polyline fill="none" stroke="black" points="447.054,-220.027 572.054,-220.027 "/>
</g>
<!-- ApplicationController&#45;&gt;UploadsController -->
<g id="edge30" class="edge"><title>ApplicationController&#45;&gt;UploadsController</title>
<path fill="none" stroke="black" d="M438.389,-420.737C445.32,-407.813 452.763,-393.933 460.13,-380.194"/>
</g>
<!-- UsersController -->
<g id="node18" class="node"><title>UsersController</title>
<polyline fill="none" stroke="black" points="641.661,-11.4201 726.661,-11.4201 "/>
<path fill="none" stroke="black" d="M726.661,-11.4201C732.661,-11.4201 738.661,-17.4201 738.661,-23.4201"/>
<polyline fill="none" stroke="black" points="738.661,-23.4201 738.661,-198.42 "/>
<path fill="none" stroke="black" d="M738.661,-198.42C738.661,-204.42 732.661,-210.42 726.661,-210.42"/>
<polyline fill="none" stroke="black" points="726.661,-210.42 641.661,-210.42 "/>
<path fill="none" stroke="black" d="M641.661,-210.42C635.661,-210.42 629.661,-204.42 629.661,-198.42"/>
<polyline fill="none" stroke="black" points="629.661,-198.42 629.661,-23.4201 "/>
<path fill="none" stroke="black" d="M629.661,-23.4201C629.661,-17.4201 635.661,-11.4201 641.661,-11.4201"/>
<text text-anchor="middle" x="684.161" y="-193.82" font-family="Times,serif" font-size="14.00">UsersController</text>
<polyline fill="none" stroke="black" points="629.661,-187.42 738.661,-187.42 "/>
<text text-anchor="start" x="637.661" y="-170.82" font-family="Times,serif" font-size="14.00">activate</text>
<text text-anchor="start" x="637.661" y="-155.82" font-family="Times,serif" font-size="14.00">create</text>
<text text-anchor="start" x="637.661" y="-140.82" font-family="Times,serif" font-size="14.00">destroy</text>
<text text-anchor="start" x="637.661" y="-125.82" font-family="Times,serif" font-size="14.00">edit</text>
<text text-anchor="start" x="637.661" y="-110.82" font-family="Times,serif" font-size="14.00">index</text>
<text text-anchor="start" x="637.661" y="-95.8201" font-family="Times,serif" font-size="14.00">new</text>
<text text-anchor="start" x="637.661" y="-80.8201" font-family="Times,serif" font-size="14.00">show</text>
<text text-anchor="start" x="637.661" y="-65.8201" font-family="Times,serif" font-size="14.00">update</text>
<polyline fill="none" stroke="black" points="629.661,-59.4201 738.661,-59.4201 "/>
<polyline fill="none" stroke="black" points="629.661,-35.4201 738.661,-35.4201 "/>
</g>
<!-- ApplicationController&#45;&gt;UsersController -->
<g id="edge32" class="edge"><title>ApplicationController&#45;&gt;UsersController</title>
<path fill="none" stroke="black" d="M465.711,-420.944C478.801,-410.432 493.22,-400.695 508.14,-393.772 535.53,-381.063 551.645,-402.05 575.254,-383.227 628.004,-341.169 655.324,-269.7 669.407,-210.532"/>
</g>
<!-- WelcomeController -->
<g id="node19" class="node"><title>WelcomeController</title>
<polyline fill="none" stroke="black" points="22.6297,-616.263 132.63,-616.263 "/>
<path fill="none" stroke="black" d="M132.63,-616.263C138.63,-616.263 144.63,-622.263 144.63,-628.263"/>
<polyline fill="none" stroke="black" points="144.63,-628.263 144.63,-728.263 "/>
<path fill="none" stroke="black" d="M144.63,-728.263C144.63,-734.263 138.63,-740.263 132.63,-740.263"/>
<polyline fill="none" stroke="black" points="132.63,-740.263 22.6297,-740.263 "/>
<path fill="none" stroke="black" d="M22.6297,-740.263C16.6297,-740.263 10.6297,-734.263 10.6297,-728.263"/>
<polyline fill="none" stroke="black" points="10.6297,-728.263 10.6297,-628.263 "/>
<path fill="none" stroke="black" d="M10.6297,-628.263C10.6297,-622.263 16.6297,-616.263 22.6297,-616.263"/>
<text text-anchor="middle" x="77.6297" y="-723.663" font-family="Times,serif" font-size="14.00">WelcomeController</text>
<polyline fill="none" stroke="black" points="10.6297,-717.263 144.63,-717.263 "/>
<text text-anchor="start" x="18.6297" y="-700.663" font-family="Times,serif" font-size="14.00">dashboard</text>
<text text-anchor="start" x="18.6297" y="-685.663" font-family="Times,serif" font-size="14.00">demo</text>
<text text-anchor="start" x="18.6297" y="-670.663" font-family="Times,serif" font-size="14.00">index</text>
<polyline fill="none" stroke="black" points="10.6297,-664.263 144.63,-664.263 "/>
<polyline fill="none" stroke="black" points="10.6297,-640.263 144.63,-640.263 "/>
</g>
<!-- ApplicationController&#45;&gt;WelcomeController -->
<g id="edge34" class="edge"><title>ApplicationController&#45;&gt;WelcomeController</title>
<path fill="none" stroke="black" d="M334.549,-545.152C322.932,-553.413 310.615,-561.11 298.205,-567.184 272.139,-579.944 261.617,-571.734 234.819,-582.876 203.87,-595.745 171.866,-614.104 144.878,-631.285"/>
</g>
</g>
</svg>
