<?xml version="1.0" encoding="UTF-8" standalone="no"?>
<!DOCTYPE svg PUBLIC "-//W3C//DTD SVG 1.1//EN"
 "http://www.w3.org/Graphics/SVG/1.1/DTD/svg11.dtd">
<!-- Generated by graphviz version 2.26.3 (20100126.1600)
 -->
<!-- Title: controllers_diagram Pages: 1 -->
<svg width="1057pt" height="668pt"
 viewBox="0.00 0.00 1057.00 668.00" xmlns="http://www.w3.org/2000/svg" xmlns:xlink="http://www.w3.org/1999/xlink">
<g id="graph1" class="graph" transform="scale(1 1) rotate(0) translate(4 664)">
<title>controllers_diagram</title>
<polygon fill="white" stroke="white" points="-4,5 -4,-664 1054,-664 1054,5 -4,5"/>
<!-- _diagram_info -->
<g id="node1" class="node"><title>_diagram_info</title>
<text text-anchor="start" x="835" y="-642.4" font-family="Times,serif" font-size="14.00">Controllers diagram</text>
<text text-anchor="start" x="835" y="-627.4" font-family="Times,serif" font-size="14.00">Date: Mar 25 2010 &#45; 12:50</text>
<text text-anchor="start" x="835" y="-612.4" font-family="Times,serif" font-size="14.00">Migration version: 20100319021418</text>
<text text-anchor="start" x="835" y="-597.4" font-family="Times,serif" font-size="14.00">Generated by RailRoad 0.5.0</text>
</g>
<!-- ApplicationController -->
<g id="node2" class="node"><title>ApplicationController</title>
<ellipse fill="none" stroke="black" cx="454.357" cy="-332.674" rx="94.2416" ry="18"/>
<text text-anchor="middle" x="454.357" y="-327.574" font-family="Times,serif" font-size="14.00">ApplicationController</text>
</g>
<!-- AnalysesController -->
<g id="node3" class="node"><title>AnalysesController</title>
<ellipse fill="none" stroke="black" cx="852.652" cy="-265.392" rx="83.8426" ry="18"/>
<text text-anchor="middle" x="852.652" y="-260.292" font-family="Times,serif" font-size="14.00">AnalysesController</text>
</g>
<!-- ApplicationController&#45;&gt;AnalysesController -->
<g id="edge2" class="edge"><title>ApplicationController&#45;&gt;AnalysesController</title>
<path fill="none" stroke="black" d="M525.105,-320.723C599.098,-308.224 714.316,-288.76 786.532,-276.561"/>
</g>
<!-- ConceptsController -->
<g id="node4" class="node"><title>ConceptsController</title>
<ellipse fill="none" stroke="black" cx="332.821" cy="-19" rx="83.9925" ry="18"/>
<text text-anchor="middle" x="332.821" y="-13.9" font-family="Times,serif" font-size="14.00">ConceptsController</text>
</g>
<!-- ApplicationController&#45;&gt;ConceptsController -->
<g id="edge4" class="edge"><title>ApplicationController&#45;&gt;ConceptsController</title>
<path fill="none" stroke="black" d="M441.506,-314.572C422.261,-286.62 386.092,-230.67 366.148,-178.087 347.535,-129.011 338.376,-67.2678 334.758,-37.1711"/>
</g>
<!-- DrugsController -->
<g id="node5" class="node"><title>DrugsController</title>
<ellipse fill="none" stroke="black" cx="338.063" cy="-510.152" rx="70.9937" ry="18"/>
<text text-anchor="middle" x="338.063" y="-505.052" font-family="Times,serif" font-size="14.00">DrugsController</text>
</g>
<!-- ApplicationController&#45;&gt;DrugsController -->
<g id="edge6" class="edge"><title>ApplicationController&#45;&gt;DrugsController</title>
<path fill="none" stroke="black" d="M442.566,-350.668C420.219,-384.772 371.949,-458.437 349.712,-492.374"/>
</g>
<!-- FormatsController -->
<g id="node6" class="node"><title>FormatsController</title>
<ellipse fill="none" stroke="black" cx="635.56" cy="-342.168" rx="79.9429" ry="18"/>
<text text-anchor="middle" x="635.56" y="-337.068" font-family="Times,serif" font-size="14.00">FormatsController</text>
</g>
<!-- ApplicationController&#45;&gt;FormatsController -->
<g id="edge8" class="edge"><title>ApplicationController&#45;&gt;FormatsController</title>
<path fill="none" stroke="black" d="M545.224,-337.435C549.374,-337.652 553.524,-337.87 557.638,-338.085"/>
</g>
<!-- GenesController -->
<g id="node7" class="node"><title>GenesController</title>
<ellipse fill="none" stroke="black" cx="278.847" cy="-346.977" rx="72.9439" ry="18"/>
<text text-anchor="middle" x="278.847" y="-341.877" font-family="Times,serif" font-size="14.00">GenesController</text>
</g>
<!-- ApplicationController&#45;&gt;GenesController -->
<g id="edge10" class="edge"><title>ApplicationController&#45;&gt;GenesController</title>
<path fill="none" stroke="black" d="M367.63,-339.742C361.153,-340.27 354.668,-340.798 348.317,-341.316"/>
</g>
<!-- ImportsController -->
<g id="node8" class="node"><title>ImportsController</title>
<ellipse fill="none" stroke="black" cx="98.8953" cy="-44.2819" rx="77.9931" ry="18"/>
<text text-anchor="middle" x="98.8953" y="-39.1819" font-family="Times,serif" font-size="14.00">ImportsController</text>
</g>
<!-- ApplicationController&#45;&gt;ImportsController -->
<g id="edge12" class="edge"><title>ApplicationController&#45;&gt;ImportsController</title>
<path fill="none" stroke="black" d="M413.368,-316.411C360.524,-293.919 267.973,-249.204 205.144,-189.22 163.396,-149.363 126.5,-91.4203 109.246,-62.3462"/>
</g>
<!-- MembersController -->
<g id="node9" class="node"><title>MembersController</title>
<ellipse fill="none" stroke="black" cx="926.718" cy="-68.1871" rx="85.1424" ry="18"/>
<text text-anchor="middle" x="926.718" y="-63.0871" font-family="Times,serif" font-size="14.00">MembersController</text>
</g>
<!-- ApplicationController&#45;&gt;MembersController -->
<g id="edge14" class="edge"><title>ApplicationController&#45;&gt;MembersController</title>
<path fill="none" stroke="black" d="M486.974,-315.697C535.901,-290.075 631.014,-239.66 710.274,-194.016 777.509,-155.297 856.213,-109.398 897.704,-85.1554"/>
</g>
<!-- RolesController -->
<g id="node10" class="node"><title>RolesController</title>
<ellipse fill="none" stroke="black" cx="277.743" cy="-189.35" rx="70.9937" ry="18"/>
<text text-anchor="middle" x="277.743" y="-184.25" font-family="Times,serif" font-size="14.00">RolesController</text>
</g>
<!-- ApplicationController&#45;&gt;RolesController -->
<g id="edge16" class="edge"><title>ApplicationController&#45;&gt;RolesController</title>
<path fill="none" stroke="black" d="M432.7,-315.1C398.619,-287.442 332.872,-234.088 299.024,-206.62"/>
</g>
<!-- SearchController -->
<g id="node11" class="node"><title>SearchController</title>
<ellipse fill="none" stroke="black" cx="533.731" cy="-20.7519" rx="74.2417" ry="18"/>
<text text-anchor="middle" x="533.731" y="-15.6519" font-family="Times,serif" font-size="14.00">SearchController</text>
</g>
<!-- ApplicationController&#45;&gt;SearchController -->
<g id="edge18" class="edge"><title>ApplicationController&#45;&gt;SearchController</title>
<path fill="none" stroke="black" d="M466.703,-314.721C484.976,-286.972 518.446,-231.324 531.343,-178.391 543.33,-129.194 539.239,-68.7777 536.048,-39.0499"/>
</g>
<!-- SessionsController -->
<g id="node12" class="node"><title>SessionsController</title>
<ellipse fill="none" stroke="black" cx="448.746" cy="-178.239" rx="81.2428" ry="18"/>
<text text-anchor="middle" x="448.746" y="-173.139" font-family="Times,serif" font-size="14.00">SessionsController</text>
</g>
<!-- ApplicationController&#45;&gt;SessionsController -->
<g id="edge20" class="edge"><title>ApplicationController&#45;&gt;SessionsController</title>
<path fill="none" stroke="black" d="M453.702,-314.656C452.627,-285.057 450.498,-226.456 449.414,-196.621"/>
</g>
<!-- SourcesController -->
<g id="node13" class="node"><title>SourcesController</title>
<ellipse fill="none" stroke="black" cx="80.5" cy="-267.507" rx="78.7943" ry="18"/>
<text text-anchor="middle" x="80.5" y="-262.407" font-family="Times,serif" font-size="14.00">SourcesController</text>
</g>
<!-- ApplicationController&#45;&gt;SourcesController -->
<g id="edge22" class="edge"><title>ApplicationController&#45;&gt;SourcesController</title>
<path fill="none" stroke="black" d="M384.476,-320.493C315.261,-308.428 210.221,-290.119 143.506,-278.489"/>
</g>
<!-- SubconceptsController -->
<g id="node14" class="node"><title>SubconceptsController</title>
<ellipse fill="none" stroke="black" cx="926.294" cy="-462.776" rx="96.1915" ry="18"/>
<text text-anchor="middle" x="926.294" y="-457.676" font-family="Times,serif" font-size="14.00">SubconceptsController</text>
</g>
<!-- ApplicationController&#45;&gt;SubconceptsController -->
<g id="edge24" class="edge"><title>ApplicationController&#45;&gt;SubconceptsController</title>
<path fill="none" stroke="black" d="M508.035,-347.472C598.752,-372.48 781.376,-422.826 872.304,-447.892"/>
</g>
<!-- SuggestionsController -->
<g id="node15" class="node"><title>SuggestionsController</title>
<ellipse fill="none" stroke="black" cx="723.089" cy="-499.796" rx="94.8916" ry="18"/>
<text text-anchor="middle" x="723.089" y="-494.696" font-family="Times,serif" font-size="14.00">SuggestionsController</text>
</g>
<!-- ApplicationController&#45;&gt;SuggestionsController -->
<g id="edge26" class="edge"><title>ApplicationController&#45;&gt;SuggestionsController</title>
<path fill="none" stroke="black" d="M482.104,-349.929C533.599,-381.954 643.406,-450.242 695.091,-482.384"/>
</g>
<!-- TreatmentsController -->
<g id="node16" class="node"><title>TreatmentsController</title>
<ellipse fill="none" stroke="black" cx="530.119" cy="-506.171" rx="90.9919" ry="18"/>
<text text-anchor="middle" x="530.119" y="-501.071" font-family="Times,serif" font-size="14.00">TreatmentsController</text>
</g>
<!-- ApplicationController&#45;&gt;TreatmentsController -->
<g id="edge28" class="edge"><title>ApplicationController&#45;&gt;TreatmentsController</title>
<path fill="none" stroke="black" d="M462.322,-350.913C476.91,-384.322 507.752,-454.95 522.261,-488.176"/>
</g>
<!-- UploadsController -->
<g id="node17" class="node"><title>UploadsController</title>
<ellipse fill="none" stroke="black" cx="627.674" cy="-193.986" rx="81.2428" ry="18"/>
<text text-anchor="middle" x="627.674" y="-188.886" font-family="Times,serif" font-size="14.00">UploadsController</text>
</g>
<!-- ApplicationController&#45;&gt;UploadsController -->
<g id="edge30" class="edge"><title>ApplicationController&#45;&gt;UploadsController</title>
<path fill="none" stroke="black" d="M476.308,-315.109C509.646,-288.432 572.669,-238.001 605.902,-211.409"/>
</g>
<!-- UsersController -->
<g id="node18" class="node"><title>UsersController</title>
<ellipse fill="none" stroke="black" cx="724.511" cy="-35.1273" rx="70.8437" ry="18"/>
<text text-anchor="middle" x="724.511" y="-30.0273" font-family="Times,serif" font-size="14.00">UsersController</text>
</g>
<!-- ApplicationController&#45;&gt;UsersController -->
<g id="edge32" class="edge"><title>ApplicationController&#45;&gt;UsersController</title>
<path fill="none" stroke="black" d="M464.131,-314.535C479.425,-286.977 510.83,-233.581 545.074,-193.957 594.993,-136.197 665.543,-79.635 701.499,-52.2306"/>
</g>
<!-- WelcomeController -->
<g id="node19" class="node"><title>WelcomeController</title>
<ellipse fill="none" stroke="black" cx="100.758" cy="-489.094" rx="87.0923" ry="18"/>
<text text-anchor="middle" x="100.758" y="-483.994" font-family="Times,serif" font-size="14.00">WelcomeController</text>
</g>
<!-- ApplicationController&#45;&gt;WelcomeController -->
<g id="edge34" class="edge"><title>ApplicationController&#45;&gt;WelcomeController</title>
<path fill="none" stroke="black" d="M416.85,-349.266C348.776,-379.379 205.67,-442.684 137.879,-472.673"/>
</g>
</g>
</svg>
