<?xml version="1.0" encoding="UTF-8" standalone="no"?>
<!DOCTYPE svg PUBLIC "-//W3C//DTD SVG 1.1//EN"
 "http://www.w3.org/Graphics/SVG/1.1/DTD/svg11.dtd">
<!-- Generated by graphviz version 2.26.3 (20100126.1600)
 -->
<!-- Title: models_diagram Pages: 1 -->
<svg width="1236pt" height="238pt"
 viewBox="0.00 0.00 1236.00 238.00" xmlns="http://www.w3.org/2000/svg" xmlns:xlink="http://www.w3.org/1999/xlink">
<g id="graph1" class="graph" transform="scale(1 1) rotate(0) translate(4 234)">
<title>models_diagram</title>
<polygon fill="white" stroke="white" points="-4,5 -4,-234 1233,-234 1233,5 -4,5"/>
<!-- _diagram_info -->
<g id="node1" class="node"><title>_diagram_info</title>
<text text-anchor="start" x="7.5" y="-213.4" font-family="Times,serif" font-size="14.00">Models diagram</text>
<text text-anchor="start" x="7.5" y="-198.4" font-family="Times,serif" font-size="14.00">Date: Mar 09 2010 &#45; 11:19</text>
<text text-anchor="start" x="7.5" y="-183.4" font-family="Times,serif" font-size="14.00">Migration version: 20100302191728</text>
<text text-anchor="start" x="7.5" y="-168.4" font-family="Times,serif" font-size="14.00">Generated by RailRoad 0.5.0</text>
</g>
<!-- Analysis -->
<g id="node2" class="node"><title>Analysis</title>
<ellipse fill="none" stroke="black" cx="243" cy="-106" rx="43.0456" ry="18"/>
<text text-anchor="middle" x="243" y="-100.9" font-family="Times,serif" font-size="14.00">Analysis</text>
</g>
<!-- Suggestion -->
<g id="node10" class="node"><title>Suggestion</title>
<ellipse fill="none" stroke="black" cx="296" cy="-18" rx="51.9954" ry="18"/>
<text text-anchor="middle" x="296" y="-12.9" font-family="Times,serif" font-size="14.00">Suggestion</text>
</g>
<!-- Analysis&#45;&gt;Suggestion -->
<g id="edge2" class="edge"><title>Analysis&#45;&gt;Suggestion</title>
<path fill="none" stroke="black" d="M259.022,-79.3977C266,-67.8119 274.133,-54.3077 280.992,-42.9189"/>
<polygon fill="black" stroke="black" points="258.885,-79.6255 249.87,-85.8702 256.305,-83.9087 253.725,-88.1919 253.725,-88.1919 253.725,-88.1919 256.305,-83.9087 257.58,-90.5136 258.885,-79.6255 258.885,-79.6255"/>
<ellipse fill="black" stroke="black" cx="283.227" cy="-39.2082" rx="4.00002" ry="4.00002"/>
</g>
<!-- Drug -->
<g id="node3" class="node"><title>Drug</title>
<ellipse fill="none" stroke="black" cx="537" cy="-196" rx="29.2474" ry="18"/>
<text text-anchor="middle" x="537" y="-190.9" font-family="Times,serif" font-size="14.00">Drug</text>
</g>
<!-- Treatment -->
<g id="node11" class="node"><title>Treatment</title>
<ellipse fill="none" stroke="black" cx="454" cy="-106" rx="48.2431" ry="18"/>
<text text-anchor="middle" x="454" y="-100.9" font-family="Times,serif" font-size="14.00">Treatment</text>
</g>
<!-- Drug&#45;&gt;Treatment -->
<g id="edge4" class="edge"><title>Drug&#45;&gt;Treatment</title>
<path fill="none" stroke="black" d="M515.482,-172.667C503.057,-159.194 487.493,-142.318 475.134,-128.916"/>
<polygon fill="black" stroke="black" points="515.763,-172.972 519.234,-183.374 519.153,-176.648 522.543,-180.323 522.543,-180.323 522.543,-180.323 519.153,-176.648 525.851,-177.272 515.763,-172.972 515.763,-172.972"/>
<ellipse fill="black" stroke="black" cx="472.415" cy="-125.968" rx="4.00002" ry="4.00002"/>
</g>
<!-- Format -->
<g id="node4" class="node"><title>Format</title>
<ellipse fill="none" stroke="black" cx="621" cy="-196" rx="37.194" ry="18"/>
<text text-anchor="middle" x="621" y="-190.9" font-family="Times,serif" font-size="14.00">Format</text>
</g>
<!-- Import -->
<g id="node6" class="node"><title>Import</title>
<ellipse fill="none" stroke="black" cx="621" cy="-106" rx="35.2434" ry="18"/>
<text text-anchor="middle" x="621" y="-100.9" font-family="Times,serif" font-size="14.00">Import</text>
</g>
<!-- Format&#45;&gt;Import -->
<g id="edge6" class="edge"><title>Format&#45;&gt;Import</title>
<path fill="none" stroke="black" d="M621,-167.548C621,-156.242 621,-143.317 621,-132.239"/>
<polygon fill="black" stroke="black" points="621,-167.787 616.5,-177.787 621,-172.787 621,-177.787 621,-177.787 621,-177.787 621,-172.787 625.5,-177.787 621,-167.787 621,-167.787"/>
<ellipse fill="black" stroke="black" cx="621" cy="-128.186" rx="4" ry="4"/>
</g>
<!-- Gene -->
<g id="node5" class="node"><title>Gene</title>
<ellipse fill="none" stroke="black" cx="268" cy="-196" rx="30.0465" ry="18"/>
<text text-anchor="middle" x="268" y="-190.9" font-family="Times,serif" font-size="14.00">Gene</text>
</g>
<!-- Member -->
<g id="node7" class="node"><title>Member</title>
<ellipse fill="none" stroke="black" cx="346" cy="-106" rx="42.2463" ry="18"/>
<text text-anchor="middle" x="346" y="-100.9" font-family="Times,serif" font-size="14.00">Member</text>
</g>
<!-- Gene&#45;&gt;Member -->
<g id="edge8" class="edge"><title>Gene&#45;&gt;Member</title>
<path fill="none" stroke="black" d="M288.547,-172.292C300.038,-159.033 314.305,-142.571 325.748,-129.368"/>
<polygon fill="black" stroke="black" points="288.494,-172.353 278.544,-176.963 285.22,-176.131 281.945,-179.91 281.945,-179.91 281.945,-179.91 285.22,-176.131 285.345,-182.857 288.494,-172.353 288.494,-172.353"/>
<ellipse fill="black" stroke="black" cx="328.494" cy="-126.199" rx="4.00002" ry="4.00002"/>
</g>
<!-- Upload -->
<g id="node12" class="node"><title>Upload</title>
<ellipse fill="none" stroke="black" cx="609" cy="-18" rx="37.8486" ry="18"/>
<text text-anchor="middle" x="609" y="-12.9" font-family="Times,serif" font-size="14.00">Upload</text>
</g>
<!-- Import&#45;&gt;Upload -->
<g id="edge10" class="edge"><title>Import&#45;&gt;Upload</title>
<path fill="none" stroke="black" d="M617.113,-77.4917C615.654,-66.7923 614.003,-54.692 612.574,-44.211"/>
<polygon fill="black" stroke="black" points="617.162,-77.858 614.055,-88.3744 617.838,-82.8122 618.514,-87.7663 618.514,-87.7663 618.514,-87.7663 617.838,-82.8122 622.972,-87.1583 617.162,-77.858 617.162,-77.858"/>
<ellipse fill="black" stroke="black" cx="612.024" cy="-40.1736" rx="4.00001" ry="4.00001"/>
</g>
<!-- Analysi -->
<g id="node22" class="node"><title>Analysi</title>
<ellipse fill="none" stroke="black" cx="709" cy="-18" rx="39.7989" ry="18"/>
<text text-anchor="middle" x="709" y="-12.9" font-family="Times,serif" font-size="14.00">Analysi</text>
</g>
<!-- Import&#45;&gt;Analysi -->
<g id="edge12" class="edge"><title>Import&#45;&gt;Analysi</title>
<path fill="none" stroke="black" d="M637.483,-80.116C643.682,-71.3435 651.145,-61.7997 659,-54 664.92,-48.1213 671.875,-42.4829 678.683,-37.4841"/>
<polygon fill="black" stroke="black" points="637.373,-80.2773 628.021,-86.0022 634.556,-84.4078 631.738,-88.5382 631.738,-88.5382 631.738,-88.5382 634.556,-84.4078 635.455,-91.0742 637.373,-80.2773 637.373,-80.2773"/>
<ellipse fill="black" stroke="black" cx="682.139" cy="-35.0297" rx="4.00002" ry="4.00002"/>
<text text-anchor="middle" x="683.5" y="-56.9" font-family="Times,serif" font-size="14.00">analyses</text>
</g>
<!-- Pathway -->
<g id="node8" class="node"><title>Pathway</title>
<ellipse fill="none" stroke="black" cx="358" cy="-196" rx="42.2463" ry="18"/>
<text text-anchor="middle" x="358" y="-190.9" font-family="Times,serif" font-size="14.00">Pathway</text>
</g>
<!-- Pathway&#45;&gt;Member -->
<g id="edge14" class="edge"><title>Pathway&#45;&gt;Member</title>
<path fill="none" stroke="black" d="M354.206,-167.548C352.699,-156.242 350.976,-143.317 349.499,-132.239"/>
<polygon fill="black" stroke="black" points="354.25,-167.875 351.111,-178.382 354.911,-172.831 355.572,-177.787 355.572,-177.787 355.572,-177.787 354.911,-172.831 360.032,-177.192 354.25,-167.875 354.25,-167.875"/>
<ellipse fill="black" stroke="black" cx="348.953" cy="-128.151" rx="4.00001" ry="4.00001"/>
</g>
<!-- Pathway&#45;&gt;Treatment -->
<g id="edge16" class="edge"><title>Pathway&#45;&gt;Treatment</title>
<path fill="none" stroke="black" d="M383.295,-172.286C397.749,-158.735 415.773,-141.837 430.006,-128.495"/>
<polygon fill="black" stroke="black" points="382.903,-172.653 372.53,-176.21 379.256,-176.073 375.608,-179.493 375.608,-179.493 375.608,-179.493 379.256,-176.073 378.686,-182.776 382.903,-172.653 382.903,-172.653"/>
<ellipse fill="black" stroke="black" cx="432.933" cy="-125.75" rx="4.00002" ry="4.00002"/>
</g>
<!-- Source -->
<g id="node9" class="node"><title>Source</title>
<ellipse fill="none" stroke="black" cx="454" cy="-196" rx="35.8982" ry="18"/>
<text text-anchor="middle" x="454" y="-190.9" font-family="Times,serif" font-size="14.00">Source</text>
</g>
<!-- Source&#45;&gt;Treatment -->
<g id="edge18" class="edge"><title>Source&#45;&gt;Treatment</title>
<path fill="none" stroke="black" d="M454,-167.548C454,-156.242 454,-143.317 454,-132.239"/>
<polygon fill="black" stroke="black" points="454,-167.787 449.5,-177.787 454,-172.787 454,-177.787 454,-177.787 454,-177.787 454,-172.787 458.5,-177.787 454,-167.787 454,-167.787"/>
<ellipse fill="black" stroke="black" cx="454" cy="-128.186" rx="4" ry="4"/>
</g>
<!-- Treatment&#45;&gt;Suggestion -->
<g id="edge20" class="edge"><title>Treatment&#45;&gt;Suggestion</title>
<path fill="none" stroke="black" d="M417.944,-85.9183C391.745,-71.3265 356.494,-51.693 330.632,-37.2885"/>
<polygon fill="black" stroke="black" points="418.102,-86.0064 424.649,-94.8036 422.471,-88.4393 426.839,-90.8723 426.839,-90.8723 426.839,-90.8723 422.471,-88.4393 429.028,-86.9409 418.102,-86.0064 418.102,-86.0064"/>
<ellipse fill="black" stroke="black" cx="327.096" cy="-35.3192" rx="4.00002" ry="4.00002"/>
</g>
<!-- User -->
<g id="node13" class="node"><title>User</title>
<ellipse fill="none" stroke="black" cx="714" cy="-106" rx="28.0958" ry="18"/>
<text text-anchor="middle" x="714" y="-100.9" font-family="Times,serif" font-size="14.00">User</text>
</g>
<!-- User&#45;&gt;User -->
<g id="edge22" class="edge"><title>User&#45;&gt;User</title>
<path fill="none" stroke="black" d="M751.985,-108.949C756.815,-108.433 760,-107.45 760,-106 760,-104.369 755.969,-103.329 750.099,-102.88"/>
<polygon fill="black" stroke="black" points="751.837,-108.955 741.658,-104.876 746.842,-109.163 741.846,-109.372 741.846,-109.372 741.846,-109.372 746.842,-109.163 742.034,-113.868 751.837,-108.955 751.837,-108.955"/>
<ellipse fill="black" stroke="black" cx="745.844" cy="-102.75" rx="4" ry="4"/>
<text text-anchor="middle" x="782" y="-100.9" font-family="Times,serif" font-size="14.00">imports</text>
</g>
<!-- User&#45;&gt;User -->
<g id="edge24" class="edge"><title>User&#45;&gt;User</title>
<path fill="none" stroke="black" d="M746.595,-118.964C773.313,-123.357 804,-119.036 804,-106 804,-92.6196 771.669,-88.4205 744.485,-93.4026"/>
<polygon fill="black" stroke="black" points="746.404,-118.924 737.553,-112.451 741.513,-117.889 736.621,-116.854 736.621,-116.854 736.621,-116.854 741.513,-117.889 735.689,-121.256 746.404,-118.924 746.404,-118.924"/>
<ellipse fill="black" stroke="black" cx="740.526" cy="-94.2804" rx="4.00001" ry="4.00001"/>
<text text-anchor="middle" x="827" y="-100.9" font-family="Times,serif" font-size="14.00">samples</text>
</g>
<!-- User&#45;&gt;Analysi -->
<g id="edge26" class="edge"><title>User&#45;&gt;Analysi</title>
<path fill="none" stroke="black" d="M712.38,-77.4917C711.772,-66.7923 711.085,-54.692 710.489,-44.211"/>
<polygon fill="black" stroke="black" points="712.397,-77.7824 708.471,-88.0217 712.68,-82.7744 712.964,-87.7663 712.964,-87.7663 712.964,-87.7663 712.68,-82.7744 717.457,-87.511 712.397,-77.7824 712.397,-77.7824"/>
<ellipse fill="black" stroke="black" cx="710.262" cy="-40.2039" rx="4" ry="4"/>
<text text-anchor="middle" x="736.5" y="-56.9" font-family="Times,serif" font-size="14.00">analyses</text>
</g>
<!-- UserMailer -->
<g id="node14" class="node"><title>UserMailer</title>
<polygon fill="none" stroke="black" points="968,-124 886,-124 886,-88 968,-88 968,-124"/>
<text text-anchor="middle" x="927" y="-100.9" font-family="Times,serif" font-size="14.00">UserMailer</text>
</g>
<!-- UserObserver -->
<g id="node15" class="node"><title>UserObserver</title>
<polygon fill="none" stroke="black" points="1175,-124 1081,-124 1081,-88 1175,-88 1175,-124"/>
<text text-anchor="middle" x="1128" y="-100.9" font-family="Times,serif" font-size="14.00">UserObserver</text>
</g>
<!-- ActionMailer::Base -->
<g id="node30" class="node"><title>ActionMailer::Base</title>
<ellipse fill="none" stroke="black" cx="927" cy="-196" rx="83.1926" ry="18"/>
<text text-anchor="middle" x="927" y="-190.9" font-family="Times,serif" font-size="14.00">ActionMailer::Base</text>
</g>
<!-- ActionMailer::Base&#45;&gt;UserMailer -->
<g id="edge28" class="edge"><title>ActionMailer::Base&#45;&gt;UserMailer</title>
<path fill="none" stroke="black" d="M927,-177.787C927,-162.173 927,-139.793 927,-124.186"/>
</g>
<!-- ActiveRecord::Observer -->
<g id="node32" class="node"><title>ActiveRecord::Observer</title>
<ellipse fill="none" stroke="black" cx="1128" cy="-196" rx="100.24" ry="18"/>
<text text-anchor="middle" x="1128" y="-190.9" font-family="Times,serif" font-size="14.00">ActiveRecord::Observer</text>
</g>
<!-- ActiveRecord::Observer&#45;&gt;UserObserver -->
<g id="edge30" class="edge"><title>ActiveRecord::Observer&#45;&gt;UserObserver</title>
<path fill="none" stroke="black" d="M1128,-177.787C1128,-162.173 1128,-139.793 1128,-124.186"/>
</g>
</g>
</svg>
